<?xml version="1.0" encoding="UTF-8" standalone="no"?>
<svg
   xmlns:dc="http://purl.org/dc/elements/1.1/"
   xmlns:cc="http://creativecommons.org/ns#"
   xmlns:rdf="http://www.w3.org/1999/02/22-rdf-syntax-ns#"
   xmlns:svg="http://www.w3.org/2000/svg"
   xmlns="http://www.w3.org/2000/svg"
   xmlns:sodipodi="http://sodipodi.sourceforge.net/DTD/sodipodi-0.dtd"
   xmlns:inkscape="http://www.inkscape.org/namespaces/inkscape"
   inkscape:version="1.0 (4035a4fb49, 2020-05-01)"
   height="200"
   width="280"
   sodipodi:docname="kubernetes.svg"
   id="svg997"
   version="1.1"
   viewBox="-0.17 0.08 279.99999 199.99999"
   role="img">
  <metadata
     id="metadata1001">
    <rdf:RDF>
      <cc:Work
         rdf:about="">
        <dc:format>image/svg+xml</dc:format>
        <dc:type
           rdf:resource="http://purl.org/dc/dcmitype/StillImage" />
        <dc:title></dc:title>
      </cc:Work>
    </rdf:RDF>
  </metadata>
  <sodipodi:namedview
     inkscape:current-layer="svg997"
     inkscape:window-maximized="0"
     inkscape:window-y="32"
     inkscape:window-x="0"
     inkscape:cy="111.675"
     inkscape:cx="84.496954"
     inkscape:zoom="2.2256371"
     inkscape:pagecheckerboard="true"
     showgrid="false"
     id="namedview999"
     inkscape:window-height="866"
     inkscape:window-width="1598"
     inkscape:pageshadow="2"
     inkscape:pageopacity="0"
     guidetolerance="10"
     gridtolerance="10"
     objecttolerance="10"
     borderopacity="1"
     bordercolor="#666666"
     pagecolor="#ffffff" />
  <defs
     id="defs987">
    <style
       id="style985">.cls-1{fill:#fff}.cls-2{fill:#326ce5}</style>
  </defs>
  <g
     transform="translate(0,-11.739657)"
     id="g1007">
    <path
       d="m 156.837,124.78122 a 3.1770402,3.1770402 0 0 0 -0.75665,-0.0575 3.2611123,3.2611123 0 0 0 -1.26108,0.32744 3.296511,3.296511 0 0 0 -1.5956,4.26998 l -0.023,0.0327 7.54702,18.23302 a 38.522718,38.522718 0 0 0 15.57104,-19.55959 l -19.44809,-3.28678 z m -30.26065,2.58411 a 3.2920862,3.2920862 0 0 0 -3.15757,-2.5611 3.2354482,3.2354482 0 0 0 -0.64868,0.0575 l -0.0327,-0.0398 -19.27906,3.27262 a 38.668738,38.668738 0 0 0 15.52236,19.42154 l 7.47091,-18.05338 -0.0584,-0.0708 a 3.2593423,3.2593423 0 0 0 0.18318,-2.02658 z m 16.14627,7.07976 a 3.2903163,3.2903163 0 0 0 -5.80274,0.007 h -0.0159 l -9.48068,17.14363 a 38.61741,38.61741 0 0 0 21.07555,1.08408 q 1.94427,-0.44248 3.79829,-1.06196 l -9.50281,-17.17372 z m 30.01285,-39.823625 -14.58695,13.055955 0.008,0.0416 a 3.296511,3.296511 0 0 0 1.29205,5.65938 l 0.0177,0.0788 18.8941,5.44257 A 39.184675,39.184675 0 0 0 172.7355,94.623285 Z m -27.10041,1.462854 a 3.296511,3.296511 0 0 0 5.23282,2.513314 l 0.0575,0.02389 15.96131,-11.316989 a 38.805909,38.805909 0 0 0 -22.3782,-10.787773 l 1.10887,19.562249 z m -16.90292,2.584996 a 3.2920862,3.2920862 0 0 0 5.22486,-2.522163 l 0.0814,-0.03805 1.10886,-19.593223 a 39.542203,39.542203 0 0 0 -3.98324,0.686736 38.466965,38.466965 0 0 0 -18.52861,10.096616 l 16.06574,11.388671 z m -8.56474,14.804655 a 3.2920862,3.2920862 0 0 0 1.29383,-5.66027 l 0.0159,-0.0779 -14.66748,-13.11879 a 38.455461,38.455461 0 0 0 -5.4585,24.34551 l 18.80118,-5.42486 z m 14.24624,5.76292 5.41071,2.60181 5.39477,-2.5965 1.33984,-5.82398 -3.73368,-4.6691 h -6.00894 l -3.74431,4.66202 z"
       class="cls-2"
       id="path989"
       style="stroke-width:0.884969" />
    <path
       d="M 229.27269,130.7114 213.85476,63.741342 a 12.037354,12.037354 0 0 0 -6.45408,-8.029327 l -62.40893,-29.79692 a 12.025849,12.025849 0 0 0 -10.35857,0 l -62.396533,29.81285 a 12.033814,12.033814 0 0 0 -6.455852,8.028442 L 50.387637,130.72468 a 11.783368,11.783368 0 0 0 -0.0035,5.14167 11.952397,11.952397 0 0 0 0.43452,1.52038 11.593099,11.593099 0 0 0 1.188513,2.41242 c 0.211508,0.32302 0.43452,0.63718 0.677002,0.94161 l 43.190047,53.69817 c 0.188499,0.23364 0.396466,0.44691 0.602664,0.66373 a 11.878944,11.878944 0 0 0 2.277911,1.88764 12.322314,12.322314 0 0 0 3.413326,1.48409 11.768323,11.768323 0 0 0 3.03545,0.4186 h 0.67169 l 68.58866,-0.0159 a 11.498408,11.498408 0 0 0 1.24781,-0.0735 11.920538,11.920538 0 0 0 1.76021,-0.33451 12.276296,12.276296 0 0 0 1.22214,-0.39116 c 0.31239,-0.11947 0.6239,-0.23894 0.92479,-0.38319 a 12.337359,12.337359 0 0 0 1.30887,-0.72745 11.772748,11.772748 0 0 0 2.86465,-2.53544 l 1.31683,-1.63719 41.85817,-52.0716 a 11.668322,11.668322 0 0 0 1.86551,-3.34961 12.097532,12.097532 0 0 0 0.44249,-1.52569 11.754164,11.754164 0 0 0 -0.004,-5.14167 z m -64.73285,26.04642 a 12.846216,12.846216 0 0 0 0.62213,1.5071 2.9327886,2.9327886 0 0 0 -0.28938,2.20358 34.843016,34.843016 0 0 0 3.31155,5.92929 31.027027,31.027027 0 0 1 2.00269,2.97704 c 0.15044,0.27877 0.34691,0.71063 0.48939,1.00533 a 3.7522703,3.7522703 0 1 1 -6.75232,3.19208 c -0.14248,-0.29204 -0.34071,-0.68143 -0.46196,-0.95754 a 31.217296,31.217296 0 0 1 -1.08408,-3.42306 34.783723,34.783723 0 0 0 -2.56287,-6.28063 2.951373,2.951373 0 0 0 -1.90623,-1.15665 c -0.11947,-0.2062 -0.56195,-1.01772 -0.79913,-1.43631 a 48.334374,48.334374 0 0 1 -34.46778,-0.0885 l -0.84515,1.53099 a 3.0345601,3.0345601 0 0 0 -1.60975,0.78497 26.121642,26.121642 0 0 0 -2.89208,6.70984 30.885432,30.885432 0 0 1 -1.0779,3.42306 c -0.11947,0.27434 -0.31947,0.65842 -0.46195,0.94957 v 0.008 l -0.006,0.007 a 3.7505004,3.7505004 0 1 1 -6.74258,-3.20005 c 0.14071,-0.29647 0.32921,-0.72568 0.47788,-1.00444 a 31.130569,31.130569 0 0 1 2.0018,-2.985 36.485519,36.485519 0 0 0 3.38058,-6.0762 3.7062519,3.7062519 0 0 0 -0.33274,-2.11243 l 0.67965,-1.62834 a 48.60429,48.60429 0 0 1 -21.538379,-26.8915 l -1.627459,0.27699 a 4.1416568,4.1416568 0 0 0 -2.148705,-0.75665 34.977531,34.977531 0 0 0 -6.509835,1.91596 31.495176,31.495176 0 0 1 -3.35138,1.28321 c -0.269915,0.0743 -0.659302,0.14867 -0.967271,0.21593 -0.02478,0.009 -0.04602,0.0195 -0.0708,0.0257 a 0.53540649,0.53540649 0 0 1 -0.05752,0.005 3.7487304,3.7487304 0 1 1 -1.658432,-7.27799 l 0.05398,-0.0133 0.03274,-0.009 c 0.312394,-0.0735 0.7124,-0.17699 0.99736,-0.23186 a 31.212871,31.212871 0 0 1 3.584126,-0.2885 34.857175,34.857175 0 0 0 6.693909,-1.09913 5.1637965,5.1637965 0 0 0 1.605334,-1.6195 l 1.563741,-0.45664 A 48.330834,48.330834 0 0 1 99.437067,88.022248 L 98.239703,86.954975 A 4.1487366,4.1487366 0 0 0 97.489249,84.79919 34.837706,34.837706 0 0 0 91.934296,80.896474 31.195172,31.195172 0 0 1 88.837788,79.085827 c -0.226552,-0.169029 -0.527442,-0.423015 -0.773463,-0.623018 l -0.05575,-0.03894 a 3.9584682,3.9584682 0 0 1 -0.918598,-5.50628 3.5982856,3.5982856 0 0 1 2.976152,-1.316834 4.4513961,4.4513961 0 0 1 2.60358,0.982316 c 0.253986,0.199118 0.601779,0.465494 0.827446,0.659302 a 31.197827,31.197827 0 0 1 2.460215,2.61066 34.85275,34.85275 0 0 0 5.03548,4.550513 2.949603,2.949603 0 0 0 2.21861,0.215047 q 0.66727,0.486733 1.34693,0.957537 a 48.044104,48.044104 0 0 1 24.40479,-13.942693 48.719336,48.719336 0 0 1 6.75232,-1.038069 l 0.0885,-1.578786 a 4.0708593,4.0708593 0 0 0 1.2124,-1.932773 34.935052,34.935052 0 0 0 -0.41593,-6.773556 31.386325,31.386325 0 0 1 -0.50974,-3.552267 c -0.01,-0.271685 0.005,-0.646912 0.009,-0.956652 0,-0.0354 -0.009,-0.0708 -0.009,-0.104426 a 3.7540402,3.7540402 0 1 1 7.47002,-0.0035 c 0,0.327439 0.0195,0.761074 0.008,1.061963 a 31.070391,31.070391 0 0 1 -0.5124,3.551383 34.985496,34.985496 0 0 0 -0.42302,6.775325 2.9593377,2.9593377 0 0 0 1.22038,1.867286 c 0.0133,0.269915 0.0575,1.170814 0.0903,1.667282 a 48.946773,48.946773 0 0 1 31.00225,14.979877 l 1.42126,-1.01506 a 4.1505065,4.1505065 0 0 0 2.26553,-0.246021 34.984611,34.984611 0 0 0 5.03547,-4.555823 30.977469,30.977469 0 0 1 2.46641,-2.610659 c 0.22921,-0.196464 0.57523,-0.460184 0.82833,-0.660188 a 3.7540402,3.7540402 0 1 1 4.65317,5.839029 c -0.25045,0.202658 -0.58142,0.484963 -0.82214,0.663727 a 31.058001,31.058001 0 0 1 -3.10358,1.810647 34.951867,34.951867 0 0 0 -5.55496,3.902715 2.9531429,2.9531429 0 0 0 -0.70089,2.115077 c -0.20797,0.191153 -0.93807,0.838066 -1.3248,1.188514 a 48.529067,48.529067 0 0 1 7.78065,33.613798 l 1.50799,0.43894 a 4.1991798,4.1991798 0 0 0 1.61064,1.61949 34.924433,34.924433 0 0 0 6.69745,1.10268 31.54031,31.54031 0 0 1 3.58059,0.28673 c 0.31416,0.0575 0.76815,0.18319 1.08851,0.25664 a 3.7487304,3.7487304 0 1 1 -1.66197,7.2771 l -0.054,-0.007 c -0.0248,-0.006 -0.0478,-0.0195 -0.0735,-0.0265 -0.30797,-0.0664 -0.6947,-0.13363 -0.96462,-0.20443 a 31.097825,31.097825 0 0 1 -3.3496,-1.29382 34.935937,34.935937 0 0 0 -6.51603,-1.91596 2.9531429,2.9531429 0 0 0 -2.0903,0.77612 q -0.79647,-0.15133 -1.59649,-0.27965 a 48.60252,48.60252 0 0 1 -21.52953,27.08449 z"
       class="cls-2"
       id="path991"
       style="stroke-width:0.884969" />
    <path
       d="M 237.41595,132.42824 220.59533,59.365169 a 13.131176,13.131176 0 0 0 -7.04258,-8.761197 L 145.46763,18.099045 a 13.119671,13.119671 0 0 0 -11.30195,0 L 66.086757,50.623441 a 13.131176,13.131176 0 0 0 -7.045242,8.756772 L 42.250106,132.44771 a 12.980731,12.980731 0 0 0 1.765514,9.89839 c 0.230977,0.35398 0.476113,0.69735 0.741604,1.02833 l 47.121081,58.5894 a 13.256842,13.256842 0 0 0 10.176265,4.85583 l 75.56488,-0.0177 a 13.262152,13.262152 0 0 0 10.17715,-4.84964 l 47.10427,-58.5947 a 13.02675,13.02675 0 0 0 2.51508,-10.92672 z m -8.13907,3.42129 a 12.103727,12.103727 0 0 1 -0.44071,1.52481 11.667437,11.667437 0 0 1 -1.86729,3.35049 l -41.85816,52.06983 -1.31507,1.63896 a 11.774518,11.774518 0 0 1 -2.8673,2.53544 12.340898,12.340898 0 0 1 -1.30444,0.72745 q -0.45399,0.20973 -0.9248,0.38053 a 12.277181,12.277181 0 0 1 -1.22391,0.39382 11.923193,11.923193 0 0 1 -1.7602,0.3354 11.493983,11.493983 0 0 1 -1.24781,0.0726 l -68.58867,0.0159 h -0.67257 a 11.768323,11.768323 0 0 1 -3.03457,-0.41771 12.323199,12.323199 0 0 1 -3.411553,-1.48586 11.879829,11.879829 0 0 1 -2.279681,-1.88676 c -0.206198,-0.2177 -0.414166,-0.43098 -0.601779,-0.66373 L 52.687435,140.74165 q -0.361068,-0.45488 -0.677002,-0.94338 a 11.594869,11.594869 0 0 1 -1.188514,-2.41243 11.951512,11.951512 0 0 1 -0.434519,-1.52126 11.783368,11.783368 0 0 1 0.0035,-5.14079 L 65.784097,63.753732 A 12.033814,12.033814 0 0 1 72.239949,55.72706 L 134.63737,25.916865 a 12.025849,12.025849 0 0 1 10.35857,0 l 62.40716,29.79692 a 12.037354,12.037354 0 0 1 6.45408,8.029327 l 15.41793,66.969178 a 11.754164,11.754164 0 0 1 0.002,5.13901 z"
       class="cls-1"
       id="path993"
       style="stroke-width:0.884969" />
    <path
       d="m 202.37725,125.3476 c -0.31858,-0.0734 -0.77346,-0.19912 -1.08585,-0.25664 a 31.54208,31.54208 0 0 0 -3.58059,-0.2885 34.924433,34.924433 0 0 1 -6.69922,-1.09913 4.1991798,4.1991798 0 0 1 -1.61064,-1.62126 l -1.50799,-0.43895 a 48.529067,48.529067 0 0 0 -7.77888,-33.613792 c 0.38585,-0.350448 1.11683,-0.997361 1.32303,-1.187629 a 2.9540279,2.9540279 0 0 1 0.70089,-2.115077 34.951867,34.951867 0 0 1 5.55496,-3.902715 31.058001,31.058001 0 0 0 3.10358,-1.810647 c 0.24072,-0.178764 0.56993,-0.461954 0.82214,-0.663727 a 3.7540402,3.7540402 0 1 0 -4.6514,-5.840799 c -0.25487,0.200888 -0.60178,0.464609 -0.82833,0.661073 a 30.977469,30.977469 0 0 0 -2.46818,2.610659 34.985496,34.985496 0 0 1 -5.03547,4.555823 4.1505065,4.1505065 0 0 1 -2.26553,0.246021 l -1.42126,1.01506 A 48.946773,48.946773 0 0 0 143.94626,66.617493 c -0.0345,-0.496468 -0.077,-1.395597 -0.0903,-1.667282 a 2.9593377,2.9593377 0 0 1 -1.21861,-1.867286 34.985496,34.985496 0 0 1 0.42302,-6.775326 31.073046,31.073046 0 0 0 0.50886,-3.550497 c 0.0115,-0.300889 -0.006,-0.738064 -0.006,-1.062848 a 3.7540402,3.7540402 0 1 0 -7.47002,0.0035 c 0,0.0354 0.008,0.06903 0.009,0.104426 -0.004,0.30974 -0.0186,0.684967 -0.009,0.955767 a 31.395175,31.395175 0 0 0 0.50974,3.553152 34.934167,34.934167 0 0 1 0.41593,6.773556 4.0717442,4.0717442 0 0 1 -1.2124,1.931003 l -0.0885,1.580556 a 48.719336,48.719336 0 0 0 -6.75232,1.038069 48.044104,48.044104 0 0 0 -24.40215,13.941808 q -0.68143,-0.469919 -1.35046,-0.957537 a 2.949603,2.949603 0 0 1 -2.21774,-0.215047 34.85275,34.85275 0 0 1 -5.035473,-4.549628 31.199596,31.199596 0 0 0 -2.45756,-2.61066 c -0.227437,-0.194693 -0.57523,-0.460184 -0.830101,-0.663727 a 4.4513961,4.4513961 0 0 0 -2.60358,-0.982316 3.5982856,3.5982856 0 0 0 -2.976152,1.318604 3.9584682,3.9584682 0 0 0 0.918598,5.50628 l 0.05752,0.04071 c 0.244251,0.200003 0.545141,0.455759 0.771693,0.621248 a 31.200481,31.200481 0 0 0 3.096508,1.812417 34.838591,34.838591 0 0 1 5.554068,3.904485 4.1505065,4.1505065 0 0 1 0.751339,2.154016 l 1.195594,1.069043 a 48.330834,48.330834 0 0 0 -7.620472,33.693441 l -1.563741,0.45487 a 5.1637965,5.1637965 0 0 1 -1.605334,1.61684 34.858945,34.858945 0 0 1 -6.694794,1.10356 31.209331,31.209331 0 0 0 -3.583241,0.2885 c -0.28673,0.0531 -0.684966,0.15398 -0.99736,0.23186 l -0.03274,0.007 -0.0531,0.0159 a 3.7487304,3.7487304 0 1 0 1.659317,7.27799 l 0.05575,-0.009 c 0.02478,-0.005 0.04602,-0.0177 0.0708,-0.0221 0.307969,-0.0708 0.695586,-0.14425 0.966386,-0.2177 a 31.496061,31.496061 0 0 0 3.350495,-1.28409 34.980186,34.980186 0 0 1 6.511605,-1.91596 4.1416568,4.1416568 0 0 1 2.146935,0.75842 l 1.628344,-0.27876 a 48.60429,48.60429 0 0 0 21.540156,26.89156 l -0.68054,1.62834 a 3.7062519,3.7062519 0 0 1 0.33363,2.11243 36.485519,36.485519 0 0 1 -3.38058,6.07443 31.135879,31.135879 0 0 0 -2.00269,2.98411 c -0.14867,0.28142 -0.33717,0.7124 -0.47965,1.0071 a 3.7505004,3.7505004 0 1 0 6.74435,3.20005 l 0.006,-0.007 v -0.009 c 0.1416,-0.29204 0.34248,-0.67523 0.46195,-0.94869 a 30.888087,30.888087 0 0 0 1.0779,-3.42306 26.121642,26.121642 0 0 1 2.89208,-6.70984 3.0354451,3.0354451 0 0 1 1.60976,-0.78585 l 0.84691,-1.531 a 48.334374,48.334374 0 0 0 34.46602,0.0876 c 0.23718,0.42302 0.67966,1.23188 0.79648,1.43631 a 2.951373,2.951373 0 0 1 1.90711,1.15931 34.784608,34.784608 0 0 1 2.56464,6.27974 31.217296,31.217296 0 0 0 1.08408,3.42306 c 0.12125,0.27611 0.31859,0.66373 0.46196,0.95754 a 3.7522703,3.7522703 0 1 0 6.75232,-3.19208 c -0.14248,-0.2947 -0.33895,-0.72568 -0.48674,-1.00533 a 31.027027,31.027027 0 0 0 -2.00268,-2.97704 34.843016,34.843016 0 0 1 -3.31156,-5.92929 2.9327886,2.9327886 0 0 1 0.28673,-2.20358 12.848871,12.848871 0 0 1 -0.62213,-1.5071 48.60252,48.60252 0 0 0 21.52953,-27.08449 c 0.4832,0.077 1.3248,0.2239 1.59826,0.27965 a 2.9531429,2.9531429 0 0 1 2.08853,-0.77611 34.935052,34.935052 0 0 1 6.51337,1.91595 31.0934,31.0934 0 0 0 3.35226,1.29383 c 0.26992,0.0708 0.65488,0.13805 0.96462,0.2062 0.0257,0.007 0.0487,0.0177 0.0735,0.0248 l 0.0531,0.008 a 3.7487304,3.7487304 0 1 0 1.66197,-7.27799 z m -35.48727,-38.042177 -15.96219,11.316104 -0.0558,-0.02655 a 3.2947411,3.2947411 0 0 1 -5.23282,-2.511544 l -0.0177,-0.0088 -1.10887,-19.560479 a 38.805909,38.805909 0 0 1 22.37646,10.791317 z m -30.06949,21.441037 h 6.00717 l 3.73457,4.6691 -1.33895,5.8231 -5.39478,2.5965 -5.4107,-2.60181 -1.34161,-5.82575 z m -5.65141,-31.547388 a 39.533353,39.533353 0 0 1 3.98501,-0.684966 l -1.11063,19.590568 -0.0814,0.03894 a 3.2920862,3.2920862 0 0 1 -5.22486,2.523933 l -0.031,0.0177 -16.06573,-11.391329 a 38.466965,38.466965 0 0 1 18.52861,-10.094846 z m -24.35437,17.416198 14.66748,13.11879 -0.0159,0.0796 a 3.2920862,3.2920862 0 0 1 -1.29382,5.65938 l -0.015,0.0637 -18.80118,5.42486 a 38.455461,38.455461 0 0 1 5.4585,-24.345505 z m 19.63836,34.8501 -7.47003,18.05072 a 38.669623,38.669623 0 0 1 -15.51882,-19.42331 l 19.27729,-3.27439 0.0327,0.0434 a 3.2345632,3.2345632 0 0 1 0.64602,-0.0575 3.2920862,3.2920862 0 0 1 2.97705,4.58857 z m 22.0499,23.21274 a 38.61741,38.61741 0 0 1 -21.07554,-1.08231 l 9.48067,-17.14363 h 0.0159 a 3.296511,3.296511 0 0 1 5.80275,-0.005 h 0.0708 l 9.50458,17.17194 q -1.85048,0.61771 -3.79918,1.06108 z m 12.24886,-5.08946 -7.54702,-18.23479 0.023,-0.0327 a 3.296511,3.296511 0 0 1 1.5956,-4.26821 3.2611123,3.2611123 0 0 1 1.26108,-0.32744 3.1770402,3.1770402 0 0 1 0.75665,0.0558 l 0.0327,-0.0407 19.44897,3.28678 a 38.522718,38.522718 0 0 1 -15.57104,19.56225 z m 17.61355,-28.6907 -18.89587,-5.44257 -0.0177,-0.0796 a 3.296511,3.296511 0 0 1 -1.29205,-5.65938 l -0.007,-0.0381 14.58606,-13.05418 a 39.18556,39.18556 0 0 1 5.62575,24.27471 z"
       class="cls-1"
       id="path995"
       style="stroke-width:0.884969" />
  </g>
</svg>
