<?xml version="1.0" encoding="UTF-8" standalone="no"?>
<svg
   xmlns:dc="http://purl.org/dc/elements/1.1/"
   xmlns:cc="http://creativecommons.org/ns#"
   xmlns:rdf="http://www.w3.org/1999/02/22-rdf-syntax-ns#"
   xmlns:svg="http://www.w3.org/2000/svg"
   xmlns="http://www.w3.org/2000/svg"
   xmlns:sodipodi="http://sodipodi.sourceforge.net/DTD/sodipodi-0.dtd"
   xmlns:inkscape="http://www.inkscape.org/namespaces/inkscape"
   inkscape:version="1.0 (4035a4fb49, 2020-05-01)"
   sodipodi:docname="nomad.svg"
   id="svg1082"
   version="1.1"
   viewBox="0 0 33.605251 24"
   height="200"
   width="280">
  <metadata
     id="metadata1088">
    <rdf:RDF>
      <cc:Work
         rdf:about="">
        <dc:format>image/svg+xml</dc:format>
        <dc:type
           rdf:resource="http://purl.org/dc/dcmitype/StillImage" />
        <dc:title></dc:title>
      </cc:Work>
    </rdf:RDF>
  </metadata>
  <defs
     id="defs1086" />
  <sodipodi:namedview
     inkscape:current-layer="svg1082"
     inkscape:window-maximized="0"
     inkscape:window-y="32"
     inkscape:window-x="0"
     inkscape:cy="100"
     inkscape:cx="140"
     inkscape:zoom="3.345"
     height="200mm"
     units="px"
     inkscape:pagecheckerboard="false"
     showgrid="false"
     id="namedview1084"
     inkscape:window-height="866"
     inkscape:window-width="1598"
     inkscape:pageshadow="2"
     inkscape:pageopacity="0"
     guidetolerance="10"
     gridtolerance="10"
     objecttolerance="10"
     borderopacity="1"
     bordercolor="#666666"
     pagecolor="#000000" />
  <g
     transform="matrix(0.08024521,0,0,0.07623295,6.5312386,0.59821883)"
     id="g1080"
     fill-rule="evenodd"
     fill="none">
    <path
       id="path1072"
       fill="#449b82"
       d="m 0,74.435 v 148.174 l 128.696,76.521 2.987,-4.757 L 128.696,150.565 4.425,74.523 0,74.435" />
    <path
       id="path1074"
       fill="#9bdb9c"
       d="M 256,73.739 V 224 L 128.696,299.13 V 150.565 L 251.337,73.852 256,73.739" />
    <path
       id="path1076"
       fill="#56cdad"
       d="M 128,0 256,73.739 128.696,153.044 0,74.435 128,0" />
    <path
       id="path1078"
       fill="#ffffff"
       d="m 192.293,59.091 -43.292,25.341 v 51.148 l -43.376,-25.757 -41.709,24.415 v 106.906 l 43.292,-26.549 V 157.05 l 46.239,29.19 38.846,-23.822 V 59.091" />
  </g>
</svg>
